<svg xmlns="http://www.w3.org/2000/svg" viewBox="0 0 14.37 14.338">
  <defs>
    <style>
      .cls-1 {
        fill: #fff;
      }
    </style>
  </defs>
  <g id="linkedin" transform="translate(-1779.186 -2896.822)">
    <path id="XMLID_802_" class="cls-1" d="M8.044,99.73H5.159a.232.232,0,0,0-.232.232v9.268a.232.232,0,0,0,.232.232H8.044a.232.232,0,0,0,.232-.232V99.962A.232.232,0,0,0,8.044,99.73Z" transform="translate(1774.488 2801.699)"/>
    <path id="XMLID_803_" class="cls-1" d="M1.9.341a1.9,1.9,0,1,0,1.9,1.9A1.9,1.9,0,0,0,1.9.341Z" transform="translate(1779.186 2896.481)"/>
    <path id="XMLID_804_" class="cls-1" d="M111.937,94.761a3.388,3.388,0,0,0-2.535,1.064v-.6a.232.232,0,0,0-.232-.232h-2.763a.232.232,0,0,0-.232.232v9.268a.232.232,0,0,0,.232.232h2.879a.232.232,0,0,0,.232-.232V99.906c0-1.545.42-2.147,1.5-2.147,1.173,0,1.266.965,1.266,2.227v4.506a.232.232,0,0,0,.232.232h2.88a.232.232,0,0,0,.232-.232V99.407C115.624,97.11,115.186,94.761,111.937,94.761Z" transform="translate(1677.932 2806.438)"/>
  </g>
</svg>
