<svg xmlns="http://www.w3.org/2000/svg" viewBox="0 0 17.336 14.086">
  <defs>
    <style>
      .cls-1 {
        fill: #fff;
      }
    </style>
  </defs>
  <path id="twitter" class="cls-1" d="M17.336,49.668a7.41,7.41,0,0,1-2.048.561,3.534,3.534,0,0,0,1.563-1.964,7.1,7.1,0,0,1-2.254.86,3.554,3.554,0,0,0-6.148,2.43,3.66,3.66,0,0,0,.082.81,10.06,10.06,0,0,1-7.326-3.718A3.555,3.555,0,0,0,2.3,53.4,3.51,3.51,0,0,1,.693,52.96V53a3.57,3.57,0,0,0,2.847,3.492,3.547,3.547,0,0,1-.932.117,3.142,3.142,0,0,1-.673-.061,3.588,3.588,0,0,0,3.321,2.476A7.141,7.141,0,0,1,.851,60.539,6.657,6.657,0,0,1,0,60.491a10.006,10.006,0,0,0,5.452,1.595A10.046,10.046,0,0,0,15.568,51.972c0-.157-.005-.309-.013-.459A7.09,7.09,0,0,0,17.336,49.668Z" transform="translate(0 -48)"/>
</svg>
