<svg xmlns="http://www.w3.org/2000/svg" viewBox="0 0 16.109 11.399">
  <defs>
    <style>
      .cls-1 {
        fill: #fff;
      }
    </style>
  </defs>
  <path id="youtube" class="cls-1" d="M12.763,67.393H3.346A3.346,3.346,0,0,0,0,70.739v4.708a3.346,3.346,0,0,0,3.346,3.346h9.417a3.346,3.346,0,0,0,3.346-3.346V70.739A3.346,3.346,0,0,0,12.763,67.393ZM10.5,73.321l-4.4,2.1a.177.177,0,0,1-.253-.16V70.93a.177.177,0,0,1,.257-.158L10.5,73A.177.177,0,0,1,10.5,73.321Z" transform="translate(0 -67.393)"/>
</svg>
